<svg width="19" height="25" viewBox="0 0 19 25" fill="none" xmlns="http://www.w3.org/2000/svg">
<path d="M16.9487 10.513H15.4487V7.31296C15.4487 4.21296 12.8987 1.66296 9.79868 1.66296C6.69868 1.66296 4.14868 4.21296 4.14868 7.31296V10.513H2.64868V7.31296C2.64868 3.36296 5.84868 0.162964 9.79868 0.162964C13.7487 0.162964 16.9487 3.36296 16.9487 7.31296V10.513Z" fill="#FF0909"/>
<path d="M16.1988 24.1129H3.39879C2.09879 24.1129 0.998779 23.013 0.998779 21.713V12.1129C0.998779 10.8129 2.09879 9.71295 3.39879 9.71295H16.1988C17.4988 9.71295 18.5988 10.8129 18.5988 12.1129V21.713C18.5988 23.063 17.4988 24.1129 16.1988 24.1129ZM3.39879 11.3129C2.94879 11.3129 2.59879 11.6629 2.59879 12.1129V21.713C2.59879 22.163 2.94879 22.513 3.39879 22.513H16.1988C16.6488 22.513 16.9988 22.163 16.9988 21.713V12.1129C16.9988 11.6629 16.6488 11.3129 16.1988 11.3129H3.39879Z" fill="#FF0909"/>
<path d="M11.3987 14.513C11.3987 15.413 10.6987 16.113 9.79873 16.113C8.89873 16.113 8.19873 15.413 8.19873 14.513C8.19873 13.613 8.89873 12.913 9.79873 12.913C10.6987 12.913 11.3987 13.663 11.3987 14.513Z" fill="#FF0909"/>
<path d="M10.1989 14.513H9.39887L8.59888 19.313H10.9989L10.1989 14.513Z" fill="#FF0909"/>
</svg>
