<svg width="33" height="33" viewBox="0 0 33 33" fill="none" xmlns="http://www.w3.org/2000/svg">
<path d="M16.2928 32.496C13.1602 32.496 10.0979 31.567 7.49316 29.8266C4.88846 28.0862 2.85834 25.6125 1.65953 22.7183C0.46072 19.8241 0.147056 16.6395 0.758205 13.567C1.36935 10.4945 2.87787 7.67232 5.09298 5.45721C7.30809 3.24209 10.1303 1.73358 13.2028 1.12243C16.2752 0.511284 19.4599 0.824947 22.3541 2.02376C25.2483 3.22257 27.722 5.25269 29.4624 7.85738C31.2028 10.4621 32.1317 13.5244 32.1317 16.657C32.1317 20.8578 30.463 24.8865 27.4926 27.8568C24.5222 30.8272 20.4935 32.496 16.2928 32.496ZM16.2928 3.25485C13.6421 3.25485 11.0509 4.04087 8.84695 5.51352C6.64297 6.98617 4.92518 9.07931 3.9108 11.5282C2.89642 13.9772 2.63102 16.6719 3.14814 19.2717C3.66527 21.8714 4.9417 24.2595 6.81603 26.1338C8.69036 28.0081 11.0784 29.2845 13.6782 29.8017C16.2779 30.3188 18.9727 30.0534 21.4216 29.039C23.8705 28.0246 25.9636 26.3068 27.4363 24.1029C28.9089 21.8989 29.695 19.3077 29.695 16.657C29.695 13.1025 28.283 9.69365 25.7696 7.18026C23.2562 4.66686 19.8473 3.25485 16.2928 3.25485Z" fill="#243665"/>
<path d="M16.2928 17.8754C15.0879 17.8754 13.9101 17.5181 12.9083 16.8487C11.9065 16.1793 11.1257 15.2279 10.6646 14.1148C10.2035 13.0016 10.0829 11.7767 10.318 10.595C10.553 9.41332 11.1332 8.32785 11.9852 7.47588C12.8371 6.62392 13.9226 6.04372 15.1043 5.80866C16.286 5.57361 17.5109 5.69425 18.6241 6.15533C19.7372 6.61641 20.6886 7.39722 21.358 8.39903C22.0274 9.40084 22.3847 10.5786 22.3847 11.7835C22.3847 13.3992 21.7429 14.9487 20.6004 16.0911C19.458 17.2336 17.9085 17.8754 16.2928 17.8754ZM16.2928 8.12837C15.5699 8.12837 14.8632 8.34274 14.2621 8.74437C13.661 9.146 13.1925 9.71686 12.9159 10.3847C12.6392 11.0526 12.5669 11.7876 12.7079 12.4966C12.8489 13.2056 13.197 13.8569 13.7082 14.3681C14.2194 14.8793 14.8707 15.2274 15.5797 15.3684C16.2887 15.5094 17.0237 15.4371 17.6916 15.1604C18.3594 14.8838 18.9303 14.4153 19.3319 13.8142C19.7336 13.2131 19.9479 12.5064 19.9479 11.7835C19.9479 10.8141 19.5628 9.8844 18.8774 9.19893C18.1919 8.51346 17.2622 8.12837 16.2928 8.12837Z" fill="#243665"/>
<path d="M27.9283 26.4041C27.7592 26.4052 27.5917 26.3711 27.4365 26.304C27.2813 26.2369 27.1417 26.1382 27.0267 26.0142C25.7335 24.6036 24.1616 23.4767 22.4104 22.705C20.6592 21.9332 18.7669 21.5333 16.8533 21.5305H15.7323C12.1652 21.5228 8.73503 22.9036 6.16806 25.3806C5.93089 25.5763 5.62849 25.6751 5.32152 25.6572C5.01455 25.6392 4.72572 25.5059 4.51296 25.2839C4.30021 25.0619 4.17926 24.7676 4.17439 24.4602C4.16952 24.1527 4.28108 23.8548 4.4867 23.6262C7.50326 20.7105 11.537 19.0848 15.7323 19.0938H16.8533C19.1026 19.0989 21.3267 19.5691 23.3857 20.4749C25.4446 21.3806 27.2941 22.7024 28.8177 24.3572C28.9787 24.5308 29.0856 24.7475 29.1255 24.9808C29.1653 25.2142 29.1362 25.4541 29.0419 25.6712C28.9475 25.8884 28.792 26.0733 28.5942 26.2034C28.3964 26.3336 28.1651 26.4033 27.9283 26.4041Z" fill="#243665"/>
</svg>
