<?xml version="1.0" ?><svg style="enable-background:new 0 0 24 24;" version="1.1" viewBox="0 0 24 24" xml:space="preserve" xmlns="http://www.w3.org/2000/svg" xmlns:xlink="http://www.w3.org/1999/xlink"><style type="text/css">
	.st0{opacity:0.2;fill:none;stroke:#000000;stroke-width:5.000000e-02;stroke-miterlimit:10;}
</style><g id="grid_system"/><g id="_icons"><g><path d="M12,2c-0.6,0-1,0.4-1,1v3c0,0.6,0.4,1,1,1s1-0.4,1-1V3C13,2.4,12.6,2,12,2z"/><path d="M14.5,7.7c0.2,0.1,0.3,0.1,0.5,0.1c0.3,0,0.7-0.2,0.9-0.5l1.5-2.6c0.3-0.5,0.1-1.1-0.4-1.4c-0.5-0.3-1.1-0.1-1.4,0.4    l-1.5,2.6C13.9,6.8,14,7.4,14.5,7.7z"/><path d="M16.3,9.5c0.2,0.3,0.5,0.5,0.9,0.5c0.2,0,0.3,0,0.5-0.1l2.6-1.5c0.5-0.3,0.6-0.9,0.4-1.4c-0.3-0.5-0.9-0.6-1.4-0.4    l-2.6,1.5C16.2,8.4,16.1,9,16.3,9.5z"/><path d="M21,11l-3,0c0,0,0,0,0,0c-0.6,0-1,0.4-1,1c0,0.6,0.4,1,1,1l3,0c0,0,0,0,0,0c0.6,0,1-0.4,1-1C22,11.5,21.6,11,21,11z"/><path d="M20.3,15.7l-2.6-1.5c-0.5-0.3-1.1-0.1-1.4,0.4c-0.3,0.5-0.1,1.1,0.4,1.4l2.6,1.5c0.2,0.1,0.3,0.1,0.5,0.1    c0.3,0,0.7-0.2,0.9-0.5C20.9,16.5,20.8,15.9,20.3,15.7z"/><path d="M15.8,16.7c-0.3-0.5-0.9-0.6-1.4-0.4c-0.5,0.3-0.6,0.9-0.4,1.4l1.5,2.6c0.2,0.3,0.5,0.5,0.9,0.5c0.2,0,0.3,0,0.5-0.1    c0.5-0.3,0.6-0.9,0.4-1.4L15.8,16.7z"/><path d="M12,17c-0.5,0-1,0.4-1,1l0,3c0,0.6,0.4,1,1,1c0,0,0,0,0,0c0.5,0,1-0.4,1-1l0-3C13,17.5,12.5,17,12,17z"/><path d="M9.5,16.3C9,16,8.4,16.2,8.1,16.7l-1.5,2.6c-0.3,0.5-0.1,1.1,0.4,1.4c0.2,0.1,0.3,0.1,0.5,0.1c0.3,0,0.7-0.2,0.9-0.5    l1.5-2.6C10.1,17.2,10,16.6,9.5,16.3z"/><path d="M7.7,14.5c-0.3-0.5-0.9-0.6-1.4-0.4l-2.6,1.5c-0.5,0.3-0.6,0.9-0.4,1.4c0.2,0.3,0.5,0.5,0.9,0.5c0.2,0,0.3,0,0.5-0.1    l2.6-1.5C7.8,15.6,7.9,15,7.7,14.5z"/><path d="M6,13c0.5,0,1-0.4,1-1c0-0.6-0.4-1-1-1l-3,0c0,0,0,0,0,0c-0.5,0-1,0.4-1,1c0,0.6,0.4,1,1,1L6,13C6,13,6,13,6,13z"/><path d="M3.7,8.3l2.6,1.5C6.5,9.9,6.7,10,6.8,10c0.3,0,0.7-0.2,0.9-0.5C8,9,7.8,8.4,7.3,8.1L4.7,6.6C4.3,6.3,3.7,6.5,3.4,6.9    C3.1,7.4,3.3,8,3.7,8.3z"/></g></g></svg>