<svg width="19" height="25" viewBox="0 0 19 25" fill="none" xmlns="http://www.w3.org/2000/svg">
<path d="M4.19873 10.563H2.69873V7.36296C2.69873 3.46296 5.89874 0.26297 9.79874 0.26297C13.3987 0.26297 16.3987 2.91297 16.8487 6.46297L15.3987 6.66296C15.0487 3.86296 12.6487 1.76297 9.79874 1.76297C6.69874 1.76297 4.19873 4.26296 4.19873 7.36296V10.563Z" fill="#28E251"/>
<path d="M16.1488 24.0629H3.39879C2.09879 24.0629 0.998779 23.0129 0.998779 21.6629V12.1129C0.998779 10.8129 2.04879 9.71295 3.39879 9.71295H16.1488C17.4488 9.71295 18.5488 10.7629 18.5488 12.1129V21.6629C18.5488 23.0129 17.4988 24.0629 16.1488 24.0629ZM3.44878 11.3629C2.99878 11.3629 2.64879 11.7129 2.64879 12.1629V21.713C2.64879 22.163 2.99878 22.513 3.44878 22.513H16.1988C16.6488 22.513 16.9988 22.163 16.9988 21.713V12.1629C16.9988 11.7129 16.6488 11.3629 16.1988 11.3629H3.44878Z" fill="#28E251"/>
<path d="M11.3987 14.513C11.3987 15.413 10.6987 16.113 9.79874 16.113C8.89874 16.113 8.19873 15.413 8.19873 14.513C8.19873 13.613 8.89874 12.913 9.79874 12.913C10.6987 12.913 11.3987 13.663 11.3987 14.513Z" fill="#28E251"/>
<path d="M10.1989 14.513H9.39888L8.59888 19.313H10.9989L10.1989 14.513Z" fill="#28E251"/>
</svg>
